<?xml version="1.0" standalone="no"?>
<!DOCTYPE svg PUBLIC "-//W3C//DTD SVG 20010904//EN"
 "http://www.w3.org/TR/2001/REC-SVG-20010904/DTD/svg10.dtd">
<svg version="1.0" xmlns="http://www.w3.org/2000/svg"
 width="336.000000pt" height="190.000000pt" viewBox="0 0 336.000000 190.000000"
 preserveAspectRatio="xMidYMid meet">
<metadata>
Created by potrace 1.16, written by Peter Selinger 2001-2019
</metadata>
<rect width="100%" height="100%" fill="#fff" />
<g transform="translate(0.000000,190.000000) scale(0.100000,-0.100000)"
fill="#000000" stroke="none">
<path d="M148 1794 c78 -109 248 -215 420 -263 152 -42 280 -54 517 -47 121 3
240 10 265 15 28 5 35 9 20 10 -399 20 -632 59 -806 136 -75 33 -155 85 -149
95 3 4 37 11 76 15 38 4 69 9 67 10 -2 2 -82 13 -178 25 -96 11 -193 23 -214
26 l-39 6 21 -28z"/>
<path fill="red" d="M1177 1809 c-38 -5 -119 -21 -180 -35 -62 -15 -174 -41 -250 -59
l-138 -31 88 -27 c102 -31 202 -53 288 -62 33 -3 74 -9 90 -11 24 -5 17 2 -32
32 -35 21 -63 41 -63 45 0 17 186 41 345 46 229 7 391 -21 558 -96 69 -31 151
-80 145 -86 -4 -4 -101 -13 -323 -32 l-90 -7 75 -7 c41 -3 316 -7 610 -8 546
-1 693 -9 845 -45 33 -8 61 -13 63 -12 6 7 -119 57 -200 80 -146 42 -279 57
-503 56 l-202 -1 -69 44 c-146 94 -287 153 -469 194 -94 21 -140 25 -315 28
-113 2 -236 -1 -273 -6z"/>
<path fill="red" d="M249 1533 c-83 -88 -84 -83 22 -83 l94 1 26 38 27 38 -54 26 c-30 15
-58 27 -62 27 -4 0 -28 -21 -53 -47z"/>
<path d="M160 745 l0 -625 115 0 115 0 2 483 3 483 174 -183 c96 -101 179
-183 185 -182 6 1 90 84 186 186 l175 185 3 -486 2 -486 110 0 110 0 0 625 0
625 -132 0 -133 1 -162 -168 -162 -168 -58 60 c-31 33 -104 108 -161 168
l-105 107 -133 0 -134 0 0 -625z"/>
<path d="M1620 759 c-113 -337 -206 -618 -208 -626 -3 -11 18 -13 114 -11
l118 3 35 108 35 107 192 0 193 0 -38 112 -38 113 -115 3 -116 3 70 212 c39
117 74 215 77 220 4 4 75 -193 157 -438 l149 -445 445 0 c261 0 460 4 480 10
41 11 94 61 109 103 6 16 11 48 11 73 l0 44 -405 0 -405 0 -1 -112 -1 -113
-114 340 c-62 187 -157 467 -210 623 l-96 282 -117 0 -116 0 -205 -611z"/>
<path d="M2619 1360 c-46 -13 -78 -41 -99 -84 -18 -39 -20 -61 -20 -274 0
-138 4 -242 11 -259 15 -42 68 -92 109 -103 19 -5 128 -10 243 -10 l207 0 0
-105 0 -105 110 0 110 0 0 152 c0 174 -12 214 -77 258 -36 25 -40 25 -265 28
l-228 3 0 140 0 139 265 0 265 0 0 115 0 115 -302 -1 c-167 0 -315 -4 -329 -9z"/>
</g>
</svg>
