<?xml version="1.0" standalone="no"?>
<!DOCTYPE svg PUBLIC "-//W3C//DTD SVG 20010904//EN"
 "http://www.w3.org/TR/2001/REC-SVG-20010904/DTD/svg10.dtd">
<svg version="1.0" xmlns="http://www.w3.org/2000/svg"
 width="1129.000000pt" height="586.000000pt" viewBox="0 0 1129.000000 586.000000"
 preserveAspectRatio="xMidYMid meet">
<metadata>
Created by potrace 1.16, written by Peter Selinger 2001-2019
</metadata>
<g transform="translate(0.000000,586.000000) scale(0.100000,-0.100000)"
fill="#151E3D" stroke="none">
<path fill="red" d="M5127 5749 c-65 -5 -155 -15 -200 -23 -98 -18 -278 -59 -292 -68 -6
-3 -68 -18 -140 -33 -71 -14 -134 -30 -138 -34 -11 -11 26 -24 163 -60 98 -25
368 -67 376 -58 2 2 -26 20 -61 40 -93 54 -92 56 60 82 403 68 776 22 1070
-132 81 -42 109 -65 94 -74 -8 -4 -81 -12 -164 -18 -82 -6 -190 -14 -240 -18
l-90 -7 90 -8 c50 -5 380 -8 735 -8 661 0 773 -5 962 -40 61 -12 115 -19 121
-17 20 6 -147 67 -268 97 -167 41 -284 52 -563 52 l-242 -1 -74 49 c-204 135
-473 234 -731 270 -116 15 -332 20 -468 9z"/>
<path d="M3748 5733 c18 -32 146 -149 207 -189 138 -88 294 -144 502 -179 129
-21 185 -25 361 -25 182 0 425 20 441 36 2 2 -49 4 -115 4 -65 0 -153 4 -194
10 -41 5 -134 17 -207 25 -244 28 -475 103 -625 202 -57 38 -53 46 35 58 26 3
47 10 47 14 0 5 -21 11 -47 14 -27 3 -102 12 -168 20 -248 30 -247 30 -237 10z"/>
<path fill="red" d="M3864 5388 l-68 -73 108 -3 c117 -3 118 -3 157 58 16 24 16 24 -49
57 -36 18 -69 33 -73 33 -3 0 -37 -33 -75 -72z"/>
<path fill="red" d="M5506 4473 c-142 -428 -261 -784 -264 -790 -3 -10 34 -13 167 -13
l170 0 14 28 c8 15 22 55 31 89 9 34 23 75 31 90 8 15 15 36 15 46 0 16 18 17
239 17 l238 0 -49 143 c-27 78 -52 150 -55 160 -5 15 -20 17 -133 17 l-128 0
75 222 c40 122 76 224 77 226 2 2 82 -231 177 -517 l174 -521 159 0 159 0 -7
38 c-3 22 -98 315 -212 653 -278 831 -271 809 -289 852 l-15 37 -158 0 -157 0
-259 -777z"/>
<path d="M3770 4435 l0 -765 135 0 135 0 0 588 c0 324 3 592 7 596 4 4 39 -26
78 -68 252 -268 359 -376 370 -376 7 0 43 33 80 73 207 220 359 377 367 377 4
0 8 -268 8 -595 l0 -595 130 0 130 0 0 765 0 765 -159 0 -159 0 -199 -206
-198 -206 -135 139 c-74 77 -163 169 -197 206 l-62 67 -166 0 -165 0 0 -765z"/>
<path d="M6800 5193 c-43 -7 -104 -56 -127 -103 -22 -43 -23 -53 -23 -337 0
-314 3 -338 53 -391 51 -55 61 -57 362 -62 l280 -5 3 -127 3 -128 129 0 130 0
0 185 c0 198 -7 234 -53 283 -51 55 -61 57 -362 62 l-280 5 0 175 0 175 323 3
322 2 0 135 0 135 -367 -1 c-203 -1 -379 -4 -393 -6z"/>
<path fill="red" class="left-line" d="M90 3950 c0 -7 558 -10 1655 -10 1097 0 1655 3 1655 10 0 7 -558 10
-1655 10 -1097 0 -1655 -3 -1655 -10z"/>
<path fill="red" class="right-line" d="M7900 3950 c0 -7 558 -10 1655 -10 1097 0 1655 3 1655 10 0 7 -558
10 -1655 10 -1097 0 -1655 -3 -1655 -10z"/>
<path d="M6620 3805 l0 -136 423 3 422 3 42 24 c66 38 97 90 101 172 l4 69
-496 0 -496 0 0 -135z"/>
<path fill="red" d="M10540 3240 c-220 -31 -355 -169 -390 -399 -7 -44 -10 -276 -7 -662
3 -640 3 -632 58 -746 30 -63 121 -153 183 -182 147 -68 367 -66 506 4 107 54
190 170 222 310 10 47 13 193 13 660 0 651 -1 665 -55 780 -30 63 -91 132
-151 170 -82 53 -257 83 -379 65z m180 -355 c50 -47 52 -79 48 -695 -3 -518
-4 -568 -21 -597 -45 -84 -179 -84 -224 0 -17 29 -18 80 -21 620 -3 568 -2
589 17 633 24 54 65 76 129 70 30 -2 52 -12 72 -31z"/>
<path d="M110 2225 l0 -1005 161 0 161 0 -6 213 c-3 116 -8 345 -11 507 -3
162 -8 383 -11 490 -3 107 -3 192 0 189 5 -5 206 -1362 206 -1391 0 -4 75 -8
168 -8 l167 0 89 678 c48 372 92 693 96 712 l8 35 1 -40 c0 -22 -6 -337 -14
-700 -8 -363 -15 -666 -15 -672 0 -10 41 -13 170 -13 l170 0 0 1005 0 1005
-234 0 -234 0 -5 -22 c-3 -13 -45 -330 -94 -705 -48 -376 -90 -683 -93 -683
-3 0 -50 317 -105 705 l-99 705 -238 0 -238 0 0 -1005z"/>
<path d="M1916 3218 c-5 -15 -317 -1979 -316 -1990 0 -5 74 -8 164 -8 l163 0
12 73 c6 39 18 120 27 180 l17 107 163 0 c89 0 165 -3 168 -8 2 -4 14 -75 26
-157 12 -83 24 -160 27 -173 5 -22 7 -22 184 -22 l179 0 -6 28 c-6 36 -314
1971 -314 1977 0 3 -110 5 -245 5 -188 0 -247 -3 -249 -12z m290 -821 c29
-243 53 -457 54 -474 l0 -33 -115 0 c-63 0 -115 4 -115 9 0 4 25 214 55 465
30 251 55 463 55 473 0 9 3 13 7 10 3 -4 30 -206 59 -450z"/>
<path d="M2860 3065 l0 -165 265 0 c171 0 265 -4 265 -10 0 -6 -126 -312 -280
-682 l-280 -672 0 -158 0 -158 475 0 475 0 0 165 0 165 -285 0 c-157 0 -285 3
-285 6 0 3 128 314 285 691 l285 686 0 148 0 149 -460 0 -460 0 0 -165z"/>
<path d="M3960 2225 l0 -1007 318 5 c335 4 366 8 460 56 99 51 171 148 202
276 17 67 26 1107 11 1244 -25 224 -111 344 -289 402 -61 20 -94 22 -384 27
l-318 4 0 -1007z m582 651 c58 -38 59 -46 56 -671 -3 -546 -4 -571 -23 -599
-28 -42 -72 -56 -170 -56 l-85 0 0 676 0 677 98 -5 c70 -3 105 -10 124 -22z"/>
<path d="M5237 2237 c-87 -545 -157 -998 -157 -1004 0 -10 39 -13 163 -13
l163 0 23 158 c13 86 25 167 28 180 5 22 6 22 171 20 l166 -3 26 -175 26 -175
181 -3 c169 -2 181 -1 177 15 -6 29 -314 1969 -314 1982 0 8 -72 11 -247 11
l-248 0 -158 -993z m448 147 c30 -252 55 -466 55 -476 0 -16 -11 -18 -115 -18
-103 0 -115 2 -115 18 0 9 25 222 55 472 30 250 55 459 55 464 0 5 2 7 5 4 3
-3 30 -212 60 -464z"/>
<path fill="red" d="M6981 3168 c-6 -35 -76 -475 -156 -978 -80 -503 -148 -927 -151 -943
l-6 -27 166 0 c91 0 166 1 167 3 0 1 12 81 27 177 l27 175 168 3 c92 1 167 -1
167 -5 0 -5 11 -80 25 -168 13 -88 25 -166 25 -172 0 -10 43 -13 180 -13 137
0 180 3 180 13 0 6 -72 457 -159 1002 l-158 990 -245 3 -246 2 -11 -62z m299
-778 c27 -234 53 -442 56 -462 l6 -38 -116 0 c-63 0 -117 3 -119 8 -3 6 108
938 114 952 3 9 9 -33 59 -460z"/>
<path fill="red" d="M7932 2413 c4 -893 2 -863 63 -989 29 -58 112 -142 173 -173 95 -48
262 -66 384 -40 120 26 225 101 277 199 68 127 65 80 68 993 l4 827 -170 0
-171 0 -2 -802 c-3 -746 -4 -805 -21 -835 -45 -84 -179 -84 -224 0 -17 30 -18
89 -21 835 l-2 802 -181 0 -180 0 3 -817z"/>
<path fill="red" d="M9030 3065 l0 -164 158 -3 157 -3 3 -837 2 -838 180 0 180 0 0 840 0
840 160 0 160 0 0 165 0 165 -500 0 -500 0 0 -165z"/>
<path fill="#333" d="M5590 515 c0 -318 0 -325 20 -325 20 0 20 7 20 325 0 318 0 325 -20
325 -20 0 -20 -7 -20 -325z"/>
<path fill="#333" d="M6320 741 l0 -101 -25 0 c-33 0 -35 -37 -2 -42 22 -3 22 -6 27 -170
5 -157 6 -168 28 -191 49 -52 123 -59 174 -17 19 15 21 21 10 31 -10 11 -18
10 -41 -4 -42 -24 -68 -21 -102 12 l-29 29 0 156 0 156 96 0 c86 0 95 2 92 18
-3 14 -17 17 -95 20 l-92 3 -3 97 c-3 83 -6 97 -20 100 -16 3 -18 -7 -18 -97z"/>
<path fill="#333" d="M7870 740 c0 -93 -1 -100 -20 -100 -13 0 -20 -7 -20 -20 0 -13 7 -20
20 -20 19 0 20 -7 20 -153 0 -128 3 -158 18 -186 20 -38 73 -71 112 -71 32 0
90 35 90 55 0 20 -21 19 -58 -2 -25 -14 -33 -15 -61 -3 -53 21 -61 51 -61 215
l0 145 95 0 c88 0 95 1 95 20 0 19 -7 20 -95 20 l-95 0 0 100 c0 93 -1 100
-20 100 -19 0 -20 -7 -20 -100z"/>
<path fill="#333" d="M8580 694 l0 -146 -38 34 c-97 88 -250 69 -327 -40 -28 -40 -30 -50
-30 -127 0 -77 2 -87 30 -127 77 -109 230 -128 327 -40 l38 34 0 -46 c0 -39 3
-46 20 -46 20 0 20 7 20 325 0 318 0 325 -20 325 -19 0 -20 -7 -20 -146z
m-100 -119 c112 -58 130 -210 34 -294 -117 -103 -294 -22 -294 135 0 80 51
150 127 174 34 11 96 4 133 -15z"/>
<path fill="#333" d="M2898 780 c-106 -32 -160 -138 -112 -220 24 -40 62 -58 166 -81 123
-27 157 -44 175 -88 13 -31 14 -41 2 -75 -19 -54 -63 -76 -152 -76 -102 0
-156 29 -171 93 -10 40 -42 33 -38 -8 8 -77 94 -130 212 -130 62 0 83 4 119
25 108 61 108 202 0 258 -25 12 -80 30 -124 38 -123 25 -164 52 -165 107 0 39
27 82 65 103 24 12 49 15 108 13 68 -4 79 -7 107 -34 16 -16 30 -35 30 -42 0
-7 9 -13 20 -13 30 0 25 34 -11 75 -47 53 -153 79 -231 55z"/>
<path fill="#333" d="M7300 490 l0 -300 222 2 c202 3 223 5 226 20 3 16 -13 18 -200 20
l-203 3 -3 278 c-2 269 -3 277 -22 277 -20 0 -20 -7 -20 -300z"/>
<path fill="#333" d="M3280 335 c0 -298 0 -305 20 -305 19 0 20 7 20 119 l0 120 50 -34
c85 -57 174 -58 257 -2 58 40 86 93 91 172 3 51 -1 68 -25 115 -41 78 -103
115 -192 115 -54 0 -75 -5 -113 -28 -26 -15 -52 -35 -57 -45 -8 -13 -10 -6
-11 31 0 40 -3 47 -20 47 -20 0 -20 -7 -20 -305z m264 254 c81 -22 136 -93
136 -174 0 -142 -163 -231 -278 -151 -127 88 -98 282 49 324 46 14 48 14 93 1z"/>
<path fill="#333" d="M3978 626 c-57 -20 -85 -42 -116 -88 -24 -37 -27 -51 -27 -124 0 -76
2 -86 30 -126 54 -76 154 -113 244 -88 44 12 131 82 131 106 0 29 -23 24 -65
-15 -67 -62 -141 -74 -217 -35 -33 17 -74 69 -83 107 l-7 27 201 0 201 0 0 28
c0 85 -67 178 -149 207 -53 18 -94 19 -143 1z m114 -36 c65 -18 128 -87 128
-140 0 -19 -5 -20 -175 -20 -198 0 -195 -1 -150 75 25 44 60 72 104 85 36 11
51 11 93 0z"/>
<path fill="#333" d="M4528 626 c-57 -20 -85 -42 -116 -88 -24 -37 -27 -51 -27 -124 0 -76
2 -86 30 -126 81 -115 248 -129 339 -28 39 44 43 55 22 63 -9 4 -31 -10 -53
-33 -113 -112 -290 -48 -301 110 -5 72 16 121 70 160 77 56 165 47 234 -25 26
-27 46 -40 54 -35 19 12 3 46 -41 83 -63 54 -137 69 -211 43z"/>
<path fill="#333" d="M4904 627 c-2 -7 -3 -107 -2 -222 3 -191 5 -210 21 -213 16 -3 17 13
17 222 0 196 -2 226 -15 226 -9 0 -18 -6 -21 -13z"/>
<path fill="#333" d="M5198 626 c-57 -20 -85 -42 -116 -88 -24 -37 -27 -51 -27 -124 0 -76
2 -86 30 -126 77 -109 230 -128 327 -40 l38 34 0 -46 c0 -39 3 -46 20 -46 19
0 20 7 20 225 0 218 -1 225 -20 225 -17 0 -20 -7 -20 -46 l0 -46 -40 35 c-64
54 -138 69 -212 43z m152 -51 c112 -58 130 -210 34 -294 -117 -103 -294 -22
-294 135 0 80 51 150 127 174 34 11 96 4 133 -15z"/>
<path fill="#333" d="M5724 627 c-2 -7 -3 -107 -2 -222 3 -191 5 -210 21 -213 16 -3 17 13
17 222 0 196 -2 226 -15 226 -9 0 -18 -6 -21 -13z"/>
<path fill="#333" d="M5954 629 c-61 -17 -99 -85 -82 -146 11 -43 42 -62 140 -85 93 -21
118 -38 118 -80 0 -45 -17 -66 -59 -78 -67 -18 -156 11 -167 55 -7 27 -44 36
-44 10 0 -53 58 -101 133 -111 66 -9 112 3 147 37 24 25 30 39 30 75 0 25 -5
54 -10 65 -15 26 -73 54 -145 69 -83 16 -105 32 -105 75 0 60 71 96 150 75 27
-7 45 -19 52 -36 14 -30 48 -33 48 -4 0 62 -115 106 -206 79z"/>
<path fill="#333" d="M6733 629 c-48 -14 -83 -62 -83 -113 0 -64 30 -89 137 -115 103 -25
123 -40 123 -92 0 -52 -34 -75 -107 -73 -60 2 -99 23 -113 60 -13 34 -46 29
-42 -6 12 -83 174 -130 258 -75 35 22 56 77 48 121 -8 45 -50 79 -116 93 -99
23 -137 41 -145 69 -9 38 16 75 63 91 35 12 47 12 85 0 28 -9 48 -22 54 -36
11 -26 45 -31 45 -7 0 67 -110 111 -207 83z"/>
</g>
</svg>
